<?xml version="1.0" encoding="UTF-8"?><svg id="Layer_1" xmlns="http://www.w3.org/2000/svg" viewBox="0 0 100 100"><defs><style>.cls-1{fill:#6a2e35;}</style></defs><path class="cls-1" d="M50,0C28.17,0,9.61,14,2.79,33.5h10.76c5.63-12.41,17.41-21.44,31.44-23.19,1.64-.2,3.31-.31,5-.31s3.36.1,5,.31c14.04,1.75,25.82,10.78,31.44,23.19h10.76C90.39,14,71.83,0,50,0h0ZM89.53,56.12c-2.95,19.18-19.52,33.87-39.53,33.87S13.42,75.31,10.47,56.12H.38c3.02,24.72,24.08,43.87,49.62,43.87s46.6-19.15,49.62-43.87h-10.09Z"/><path class="cls-1" d="M55,10.3v23.2h-10V10.3c3.29-.42,6.63-.42,10,0Z"/><rect class="cls-1" x="45" y="56.12" width="10" height="21.29"/><path class="cls-1" d="M89.58,56.12c-.41,3.38-1.1,6.72-2.21,10h-13.88v-10h16.08Z"/></svg>